<svg xmlns="http://www.w3.org/2000/svg" viewBox="0 0 196 138"><defs><style>.cls-1{fill:#1d1d1b;}.cls-2{fill:#00a7e7;}.cls-3{fill:#27348b;}.cls-4{fill:none;}</style></defs><title>logo-new</title><path class="cls-1" d="M30.73 98.94h-3.39v-1.05h7.93v1.05h-3.39v9h-1.15v-9zm6.85 8.25a3.08 3.08 0 0 0 2.35-1.05l.69.62a3.85 3.85 0 0 1-3.07 1.4 3.9 3.9 0 0 1-.14-7.78c2.21 0 3.47 1.76 3.47 4v.39h-5.91a2.6 2.6 0 0 0 2.61 2.42zm2.18-3.37a2.45 2.45 0 0 0-2.38-2.51 2.57 2.57 0 0 0-2.42 2.51h4.8zm1.97-3.29h1.11v1.95a3.19 3.19 0 0 1 3-2.08v1.2h-.09c-1.63 0-3 1.17-3 3.42v3h-1.11v-7.45zm4.74 0h1.11v1.95a3.19 3.19 0 0 1 3-2.08v1.2h-.09c-1.63 0-3 1.17-3 3.42v3h-1.11v-7.45zm7.71 6.66a3.08 3.08 0 0 0 2.35-1.05l.69.62a3.85 3.85 0 0 1-3.07 1.4 3.9 3.9 0 0 1-.14-7.78c2.21 0 3.47 1.76 3.47 4v.39h-5.91a2.6 2.6 0 0 0 2.61 2.42zm2.18-3.37a2.45 2.45 0 0 0-2.38-2.51 2.57 2.57 0 0 0-2.42 2.51h4.8zm4.76.5a3.66 3.66 0 0 1 3.56-3.88 3.36 3.36 0 0 1 2.85 1.59v-4.5h1.11v10.52h-1.11v-1.5a3.35 3.35 0 0 1-2.85 1.66 3.63 3.63 0 0 1-3.56-3.89zm6.46 0a2.77 2.77 0 0 0-2.7-2.87 2.63 2.63 0 0 0-2.62 2.87 2.68 2.68 0 0 0 2.62 2.88 2.78 2.78 0 0 0 2.71-2.94zm1.95-3.66a1.15 1.15 0 0 0 1-1.25h-.52v-1.51h1.33v1.3a1.77 1.77 0 0 1-1.6 2zm2.97-2.99h1.27v1.23h-1.27v-1.23zm.07 2.85h1.11v7.45h-1.11v-7.45zm2.55.01h1.11v1.3a2.82 2.82 0 0 1 2.55-1.46 2.72 2.72 0 0 1 2.85 3v4.63h-1.11v-4.35a2 2 0 0 0-2.06-2.25 2.19 2.19 0 0 0-2.23 2.34v4.27h-1.11v-7.45zm7.83 0h1.11v1.3a2.82 2.82 0 0 1 2.55-1.46 2.72 2.72 0 0 1 2.85 3v4.63h-1.11v-4.35a2 2 0 0 0-2.06-2.25 2.19 2.19 0 0 0-2.23 2.34v4.27h-1.11v-7.45zm7.32 3.79a3.885 3.885 0 0 1 7.77 0 3.87 3.87 0 0 1-3.91 3.89 3.82 3.82 0 0 1-3.86-3.89zm6.63 0a2.82 2.82 0 0 0-2.78-3 2.75 2.75 0 0 0-2.72 2.88 2.8 2.8 0 0 0 2.75 2.9 2.75 2.75 0 0 0 2.75-2.78zm.88-3.79h1.23l2.51 6.18 2.52-6.18h1.2l-3.24 7.51h-1zm7.18 5.29c0-1.6 1.3-2.44 3.19-2.44a7.81 7.81 0 0 1 2.28.32v-.23a1.91 1.91 0 0 0-2.21-2 5.18 5.18 0 0 0-2.26.53l-.33-.91a6.1 6.1 0 0 1 2.71-.63 3.31 3.31 0 0 1 2.41.82 3 3 0 0 1 .78 2.19v4.56h-1.1v-1.11a3.27 3.27 0 0 1-2.68 1.27c-1.41-.05-2.79-.87-2.79-2.37zm5.48-.58v-.69a7.65 7.65 0 0 0-2.18-.32c-1.38 0-2.18.61-2.18 1.5a1.65 1.65 0 0 0 1.87 1.48 2.23 2.23 0 0 0 2.49-1.97zm2.68.77v-4.5h-1v-1h1v-2.19h1.11v2.25h2.36v1h-2.36v4.35a1.1 1.1 0 0 0 1.25 1.24 2.33 2.33 0 0 0 1.08-.26v1a2.8 2.8 0 0 1-1.34.32 1.9 1.9 0 0 1-2.1-2.21zm4.33-8.34h1.27v1.23h-1.27v-1.23zm.07 2.85h1.11v7.45h-1.11v-7.45zm2.14 3.8a3.89 3.89 0 0 1 7.77 0 3.87 3.87 0 0 1-3.91 3.89 3.82 3.82 0 0 1-3.86-3.89zm6.63 0a2.82 2.82 0 0 0-2.77-3 2.75 2.75 0 0 0-2.72 2.88 2.8 2.8 0 0 0 2.75 2.9 2.75 2.75 0 0 0 2.74-2.78zm2.04-3.79h1.11v1.3a2.82 2.82 0 0 1 2.55-1.46 2.72 2.72 0 0 1 2.85 3v4.63h-1.11v-4.35a2 2 0 0 0-2.06-2.25 2.19 2.19 0 0 0-2.23 2.34v4.27h-1.11v-7.45zm7.17 6.5l.56-.79a4.35 4.35 0 0 0 2.58 1 1.33 1.33 0 0 0 1.54-1.18c0-.75-.88-1-1.86-1.31-1.17-.33-2.47-.74-2.47-2.1a2.26 2.26 0 0 1 2.54-2.13 5.1 5.1 0 0 1 2.68.82l-.5.84a4.22 4.22 0 0 0-2.21-.72 1.24 1.24 0 0 0-1.44 1.08c0 .71.92 1 1.92 1.28 1.15.35 2.39.79 2.39 2.13 0 1.41-1.17 2.23-2.65 2.23a5.13 5.13 0 0 1-3.08-1.15z"/><path class="cls-2" d="M195.41 55.78l-10.36-9.85-38.76 40.74v37.03h14.3v-31.29l34.82-36.63z"/><path class="cls-3" d="M49.43 34.06l3-3.61a10.65 10.65 0 0 0 6.93 2.82c2.09 0 3.35-.83 3.35-2.19v-.07c0-1.29-.8-2-4.67-3-4.67-1.19-7.69-2.49-7.69-7.09v-.07c0-4.21 3.38-7 8.12-7a13.43 13.43 0 0 1 8.62 3l-2.65 3.85a10.89 10.89 0 0 0-6-2.29c-2 0-3 .9-3 2v.07c0 1.53 1 2 5 3.05 4.71 1.23 7.36 2.92 7.36 7v.07c0 4.61-3.51 7.19-8.52 7.19a14.77 14.77 0 0 1-9.85-3.73zm27.54-19.99h4.71l9.95 23.37h-5.34l-2.12-5.2h-9.81l-2.12 5.2h-5.21zm5.37 13.66l-3.08-7.53-3.08 7.53h6.17zm10.38-13.49h5.11v23.21h-5.11v-23.21zm8.18 0h4.71l10.87 14.29v-14.29h5v23.21h-4.34l-11.24-14.75v14.75h-5v-23.21zm28.88 4.7h-7.06v-4.71h19.23v4.71h-7.06v18.5h-5.11v-18.5zm-107.34 45.14l-2.55-2.29a12.65 12.65 0 0 1-6.9 2 11.89 11.89 0 0 1-12.3-11.94v-.07a12.34 12.34 0 0 1 24.67-.07v.07a11.91 11.91 0 0 1-2.06 6.66l2.39 2zm-6.32-5.63l-3.78-3.22 3.25-3.65 3.81 3.45a8.13 8.13 0 0 0 .63-3.18v-.07a7.05 7.05 0 0 0-7-7.29 6.94 6.94 0 0 0-7 7.23v.07a7.05 7.05 0 0 0 7 7.29 7 7 0 0 0 3.09-.63zm10.7-5.01v-13.26h5.11v13.14c0 3.78 1.89 5.74 5 5.74s5-1.89 5-5.57v-13.31h5.11v13.14c0 7-3.95 10.48-10.18 10.48s-10.04-3.48-10.04-10.36zm22.7-13.26h17.51v4.54h-12.43v4.71h10.94v4.54h-10.94v4.87h12.6v4.54h-17.68v-23.2zm19.5 0h4.71l10.87 14.29v-14.29h5v23.21h-4.34l-11.24-14.75v14.75h-5v-23.21zm28.87 4.71h-7.06v-4.71h19.23v4.71h-7.06v18.5h-5.11v-18.5zm13.59-4.71h5.11v23.21h-5.11v-23.21zm8.19 0h4.71l10.87 14.29v-14.29h5v23.21h-4.34l-11.24-14.75v14.75h-5v-23.21zm-112.8 26.3h11.8v3.06h-8.38v3.17h7.37v3.06h-7.37v3.28h8.49v3.06h-11.91v-15.63zm13.25 0h3.17l7.33 9.63v-9.63h3.4v15.64h-2.9l-7.57-9.94v9.94h-3.43v-15.64zm25.44 9.48l-6-9.47h4l3.73 6.28 3.8-6.28h3.91l-6 9.41v6.23h-3.44v-6.17zm8.13-9.48h3.8l4.09 11 4.09-11h3.71l-6.32 15.75h-3zm16.43 0h11.8v3.06h-8.38v3.17h7.37v3.06h-7.37v3.28h8.49v3.06h-11.91v-15.63zm13.28 0h3.44v12.51h7.8v3.13h-11.24v-15.64zm12.31 0h3.41v15.64h-3.44v-15.64zm5.67 0h3.17l7.33 9.63v-9.63h3.4v15.64h-2.93l-7.58-9.94v9.94h-3.4v-15.64zm15.98 0h11.76v3.06h-8.38v3.17h7.38v3.06h-7.37v3.28h8.49v3.06h-11.88v-15.63zm12.22 13.36l2-2.44a7.18 7.18 0 0 0 4.67 1.9c1.41 0 2.26-.56 2.26-1.48 0-.87-.54-1.32-3.15-2-3.15-.8-5.18-1.68-5.18-4.78 0-2.84 2.28-4.71 5.47-4.71a9.06 9.06 0 0 1 5.81 2l-1.79 2.59a7.34 7.34 0 0 0-4.07-1.54c-1.32 0-2 .6-2 1.36 0 1 .67 1.36 3.37 2.06 3.17.83 5 2 5 4.69 0 3.11-2.37 4.85-5.74 4.85a10 10 0 0 1-6.65-2.5z"/><path class="cls-4" d="M0 0h196v138h-196z"/></svg>